<?xml version="1.0" standalone="no"?>
<!DOCTYPE svg PUBLIC "-//W3C//DTD SVG 20010904//EN"
 "http://www.w3.org/TR/2001/REC-SVG-20010904/DTD/svg10.dtd">
<svg version="1.0" xmlns="http://www.w3.org/2000/svg"
 width="512.000000pt" height="512.000000pt" viewBox="0 0 512.000000 512.000000"
 preserveAspectRatio="xMidYMid meet">

<g transform="translate(0.000000,512.000000) scale(0.100000,-0.100000)"
fill="#000000" stroke="none">
<path d="M119 5092 c-98 -51 -143 -166 -104 -270 15 -41 168 -198 1206 -1237
l1190 -1191 -49 -95 c-79 -155 -102 -298 -66 -406 12 -38 124 -230 153 -265 4
-4 242 228 529 515 l523 523 -113 71 c-132 83 -185 103 -274 103 -91 0 -181
-25 -293 -82 l-95 -49 -1186 1185 c-924 924 -1195 1190 -1230 1205 -64 29
-126 27 -191 -7z"/>
<path d="M3055 2060 l-540 -540 20 -32 c57 -96 195 -334 199 -343 3 -9 1246
1223 1246 1235 0 3 -28 20 -63 39 -34 19 -118 67 -185 108 -68 40 -127 73
-130 73 -4 0 -250 -243 -547 -540z"/>
<path d="M3442 1677 l-643 -643 115 -229 c125 -247 241 -513 302 -693 l39
-113 40 7 c150 23 386 145 636 327 l24 17 -223 223 c-227 227 -241 246 -206
281 39 40 58 27 294 -209 l225 -225 135 118 c74 65 141 126 149 136 13 15 -7
39 -217 250 -243 243 -256 261 -216 300 39 40 57 27 302 -216 l233 -233 72 75
c40 41 101 108 136 149 l63 74 -226 226 c-237 237 -250 256 -210 295 35 35 54
21 280 -205 128 -128 226 -219 233 -215 25 16 198 289 247 391 48 98 94 239
94 284 0 11 -33 27 -113 55 -181 62 -405 160 -670 292 -136 68 -249 124 -250
124 -1 0 -291 -289 -645 -643z"/>
</g>
</svg>
